<mxfile host="app.diagrams.net" modified="2022-04-14T16:39:13.942Z" agent="5.0 (Windows NT 10.0; Win64; x64) AppleWebKit/537.36 (KHTML, like Gecko) Chrome/99.0.4844.74 Safari/537.36" etag="o01vfZFr7HhUl43YsBvZ" version="17.4.0" type="github">
  <diagram id="Aovts_Rp8I3-hvyZuAQ_" name="Page-1">
    <mxGraphModel dx="782" dy="419" grid="1" gridSize="10" guides="1" tooltips="1" connect="1" arrows="1" fold="1" page="1" pageScale="1" pageWidth="827" pageHeight="1169" math="0" shadow="0">
      <root>
        <mxCell id="0" />
        <mxCell id="1" parent="0" />
        <mxCell id="lr9Rlgrrn2KDnclNqlx_-1" value="Mindmap" style="swimlane;startSize=20;horizontal=1;containerType=tree;align=center;verticalAlign=middle;fontStyle=0;fontSize=12;" vertex="1" parent="1">
          <mxGeometry x="330" width="1130" height="1160" as="geometry" />
        </mxCell>
        <mxCell id="lr9Rlgrrn2KDnclNqlx_-2" value="" style="edgeStyle=entityRelationEdgeStyle;startArrow=none;endArrow=none;segment=10;curved=1;rounded=0;align=center;fontStyle=0;fontSize=12;" edge="1" parent="lr9Rlgrrn2KDnclNqlx_-1" source="lr9Rlgrrn2KDnclNqlx_-6" target="lr9Rlgrrn2KDnclNqlx_-7">
          <mxGeometry relative="1" as="geometry" />
        </mxCell>
        <mxCell id="lr9Rlgrrn2KDnclNqlx_-3" value="" style="edgeStyle=entityRelationEdgeStyle;startArrow=none;endArrow=none;segment=10;curved=1;rounded=0;align=center;fontStyle=0;fontSize=12;" edge="1" parent="lr9Rlgrrn2KDnclNqlx_-1" source="lr9Rlgrrn2KDnclNqlx_-6" target="lr9Rlgrrn2KDnclNqlx_-8">
          <mxGeometry relative="1" as="geometry" />
        </mxCell>
        <mxCell id="lr9Rlgrrn2KDnclNqlx_-4" value="" style="edgeStyle=entityRelationEdgeStyle;startArrow=none;endArrow=none;segment=10;curved=1;rounded=0;align=center;fontStyle=0;fontSize=12;" edge="1" parent="lr9Rlgrrn2KDnclNqlx_-1" source="lr9Rlgrrn2KDnclNqlx_-6" target="lr9Rlgrrn2KDnclNqlx_-9">
          <mxGeometry relative="1" as="geometry" />
        </mxCell>
        <mxCell id="lr9Rlgrrn2KDnclNqlx_-5" value="" style="edgeStyle=entityRelationEdgeStyle;startArrow=none;endArrow=none;segment=10;curved=1;rounded=0;align=center;fontStyle=0;fontSize=12;" edge="1" parent="lr9Rlgrrn2KDnclNqlx_-1" source="lr9Rlgrrn2KDnclNqlx_-6" target="lr9Rlgrrn2KDnclNqlx_-10">
          <mxGeometry relative="1" as="geometry" />
        </mxCell>
        <mxCell id="lr9Rlgrrn2KDnclNqlx_-6" value="Spring" style="ellipse;whiteSpace=wrap;html=1;align=center;treeFolding=1;treeMoving=1;newEdgeStyle={&quot;edgeStyle&quot;:&quot;entityRelationEdgeStyle&quot;,&quot;startArrow&quot;:&quot;none&quot;,&quot;endArrow&quot;:&quot;none&quot;,&quot;segment&quot;:10,&quot;curved&quot;:1};fontStyle=0;fontSize=12;" vertex="1" parent="lr9Rlgrrn2KDnclNqlx_-1">
          <mxGeometry x="160" y="60" width="100" height="40" as="geometry" />
        </mxCell>
        <mxCell id="lr9Rlgrrn2KDnclNqlx_-7" value="Topic" style="whiteSpace=wrap;html=1;rounded=1;arcSize=50;align=center;verticalAlign=middle;strokeWidth=1;autosize=1;spacing=4;treeFolding=1;treeMoving=1;newEdgeStyle={&quot;edgeStyle&quot;:&quot;entityRelationEdgeStyle&quot;,&quot;startArrow&quot;:&quot;none&quot;,&quot;endArrow&quot;:&quot;none&quot;,&quot;segment&quot;:10,&quot;curved&quot;:1};fontStyle=0;fontSize=12;" vertex="1" parent="lr9Rlgrrn2KDnclNqlx_-1">
          <mxGeometry x="325" y="35" width="70" height="30" as="geometry" />
        </mxCell>
        <mxCell id="lr9Rlgrrn2KDnclNqlx_-8" value="AOP" style="whiteSpace=wrap;html=1;shape=partialRectangle;top=0;left=0;bottom=1;right=0;points=[[0,1],[1,1]];fillColor=none;align=center;verticalAlign=bottom;routingCenterY=0.5;snapToPoint=1;autosize=1;treeFolding=1;treeMoving=1;newEdgeStyle={&quot;edgeStyle&quot;:&quot;entityRelationEdgeStyle&quot;,&quot;startArrow&quot;:&quot;none&quot;,&quot;endArrow&quot;:&quot;none&quot;,&quot;segment&quot;:10,&quot;curved&quot;:1};fontStyle=0;fontSize=12;" vertex="1" parent="lr9Rlgrrn2KDnclNqlx_-1">
          <mxGeometry x="326" y="86" width="60" height="20" as="geometry" />
        </mxCell>
        <mxCell id="lr9Rlgrrn2KDnclNqlx_-9" value="Topic" style="whiteSpace=wrap;html=1;rounded=1;arcSize=50;align=center;verticalAlign=middle;strokeWidth=1;autosize=1;spacing=4;treeFolding=1;treeMoving=1;newEdgeStyle={&quot;edgeStyle&quot;:&quot;entityRelationEdgeStyle&quot;,&quot;startArrow&quot;:&quot;none&quot;,&quot;endArrow&quot;:&quot;none&quot;,&quot;segment&quot;:10,&quot;curved&quot;:1};fontStyle=0;fontSize=12;" vertex="1" parent="lr9Rlgrrn2KDnclNqlx_-1">
          <mxGeometry x="25" y="35" width="70" height="30" as="geometry" />
        </mxCell>
        <mxCell id="lr9Rlgrrn2KDnclNqlx_-10" value="Branch" style="whiteSpace=wrap;html=1;shape=partialRectangle;top=0;left=0;bottom=1;right=0;points=[[0,1],[1,1]];fillColor=none;align=center;verticalAlign=bottom;routingCenterY=0.5;snapToPoint=1;autosize=1;treeFolding=1;treeMoving=1;newEdgeStyle={&quot;edgeStyle&quot;:&quot;entityRelationEdgeStyle&quot;,&quot;startArrow&quot;:&quot;none&quot;,&quot;endArrow&quot;:&quot;none&quot;,&quot;segment&quot;:10,&quot;curved&quot;:1};fontStyle=0;fontSize=12;" vertex="1" parent="lr9Rlgrrn2KDnclNqlx_-1">
          <mxGeometry x="21" y="86" width="70" height="20" as="geometry" />
        </mxCell>
        <mxCell id="lr9Rlgrrn2KDnclNqlx_-11" value="" style="edgeStyle=entityRelationEdgeStyle;startArrow=none;endArrow=none;segment=10;curved=1;rounded=0;align=center;fontStyle=0;fontSize=12;" edge="1" target="lr9Rlgrrn2KDnclNqlx_-12" source="lr9Rlgrrn2KDnclNqlx_-8" parent="lr9Rlgrrn2KDnclNqlx_-1">
          <mxGeometry relative="1" as="geometry">
            <mxPoint x="360" y="280" as="sourcePoint" />
          </mxGeometry>
        </mxCell>
        <mxCell id="lr9Rlgrrn2KDnclNqlx_-12" value="Aspect(切面)" style="whiteSpace=wrap;html=1;shape=partialRectangle;top=0;left=0;bottom=1;right=0;points=[[0,1],[1,1]];fillColor=none;align=center;verticalAlign=bottom;routingCenterY=0.5;snapToPoint=1;autosize=1;treeFolding=1;treeMoving=1;newEdgeStyle={&quot;edgeStyle&quot;:&quot;entityRelationEdgeStyle&quot;,&quot;startArrow&quot;:&quot;none&quot;,&quot;endArrow&quot;:&quot;none&quot;,&quot;segment&quot;:10,&quot;curved&quot;:1};fontStyle=0;fontSize=12;" vertex="1" parent="lr9Rlgrrn2KDnclNqlx_-1">
          <mxGeometry x="426" y="86" width="100" height="20" as="geometry" />
        </mxCell>
        <mxCell id="lr9Rlgrrn2KDnclNqlx_-15" value="" style="edgeStyle=entityRelationEdgeStyle;startArrow=none;endArrow=none;segment=10;curved=1;rounded=0;align=center;fontStyle=0;fontSize=12;" edge="1" target="lr9Rlgrrn2KDnclNqlx_-16" source="lr9Rlgrrn2KDnclNqlx_-8" parent="lr9Rlgrrn2KDnclNqlx_-1">
          <mxGeometry relative="1" as="geometry">
            <mxPoint x="360" y="280" as="sourcePoint" />
          </mxGeometry>
        </mxCell>
        <mxCell id="lr9Rlgrrn2KDnclNqlx_-16" value="JointPoint(连接点)" style="whiteSpace=wrap;html=1;shape=partialRectangle;top=0;left=0;bottom=1;right=0;points=[[0,1],[1,1]];fillColor=none;align=center;verticalAlign=bottom;routingCenterY=0.5;snapToPoint=1;autosize=1;treeFolding=1;treeMoving=1;newEdgeStyle={&quot;edgeStyle&quot;:&quot;entityRelationEdgeStyle&quot;,&quot;startArrow&quot;:&quot;none&quot;,&quot;endArrow&quot;:&quot;none&quot;,&quot;segment&quot;:10,&quot;curved&quot;:1};fontStyle=0;fontSize=12;" vertex="1" parent="lr9Rlgrrn2KDnclNqlx_-1">
          <mxGeometry x="426" y="146" width="130" height="20" as="geometry" />
        </mxCell>
        <mxCell id="lr9Rlgrrn2KDnclNqlx_-17" value="" style="edgeStyle=entityRelationEdgeStyle;startArrow=none;endArrow=none;segment=10;curved=1;rounded=0;align=center;fontStyle=0;fontSize=12;" edge="1" target="lr9Rlgrrn2KDnclNqlx_-18" source="lr9Rlgrrn2KDnclNqlx_-8" parent="lr9Rlgrrn2KDnclNqlx_-1">
          <mxGeometry relative="1" as="geometry">
            <mxPoint x="360" y="280" as="sourcePoint" />
          </mxGeometry>
        </mxCell>
        <mxCell id="lr9Rlgrrn2KDnclNqlx_-18" value="Advice(通知)" style="whiteSpace=wrap;html=1;shape=partialRectangle;top=0;left=0;bottom=1;right=0;points=[[0,1],[1,1]];fillColor=none;align=center;verticalAlign=bottom;routingCenterY=0.5;snapToPoint=1;autosize=1;treeFolding=1;treeMoving=1;newEdgeStyle={&quot;edgeStyle&quot;:&quot;entityRelationEdgeStyle&quot;,&quot;startArrow&quot;:&quot;none&quot;,&quot;endArrow&quot;:&quot;none&quot;,&quot;segment&quot;:10,&quot;curved&quot;:1};fontStyle=0;fontSize=12;" vertex="1" parent="lr9Rlgrrn2KDnclNqlx_-1">
          <mxGeometry x="431" y="176" width="100" height="20" as="geometry" />
        </mxCell>
        <mxCell id="lr9Rlgrrn2KDnclNqlx_-19" value="" style="edgeStyle=entityRelationEdgeStyle;startArrow=none;endArrow=none;segment=10;curved=1;rounded=0;align=center;fontStyle=0;fontSize=12;" edge="1" target="lr9Rlgrrn2KDnclNqlx_-20" source="lr9Rlgrrn2KDnclNqlx_-8" parent="lr9Rlgrrn2KDnclNqlx_-1">
          <mxGeometry relative="1" as="geometry">
            <mxPoint x="360" y="280" as="sourcePoint" />
          </mxGeometry>
        </mxCell>
        <mxCell id="lr9Rlgrrn2KDnclNqlx_-20" value="Target Object(目标对象)" style="whiteSpace=wrap;html=1;shape=partialRectangle;top=0;left=0;bottom=1;right=0;points=[[0,1],[1,1]];fillColor=none;align=center;verticalAlign=bottom;routingCenterY=0.5;snapToPoint=1;autosize=1;treeFolding=1;treeMoving=1;newEdgeStyle={&quot;edgeStyle&quot;:&quot;entityRelationEdgeStyle&quot;,&quot;startArrow&quot;:&quot;none&quot;,&quot;endArrow&quot;:&quot;none&quot;,&quot;segment&quot;:10,&quot;curved&quot;:1};fontStyle=0;fontSize=12;" vertex="1" parent="lr9Rlgrrn2KDnclNqlx_-1">
          <mxGeometry x="431" y="210" width="160" height="20" as="geometry" />
        </mxCell>
        <mxCell id="lr9Rlgrrn2KDnclNqlx_-14" value="PointCut(切点)" style="whiteSpace=wrap;html=1;shape=partialRectangle;top=0;left=0;bottom=1;right=0;points=[[0,1],[1,1]];fillColor=none;align=center;verticalAlign=bottom;routingCenterY=0.5;snapToPoint=1;autosize=1;treeFolding=1;treeMoving=1;newEdgeStyle={&quot;edgeStyle&quot;:&quot;entityRelationEdgeStyle&quot;,&quot;startArrow&quot;:&quot;none&quot;,&quot;endArrow&quot;:&quot;none&quot;,&quot;segment&quot;:10,&quot;curved&quot;:1};fontStyle=0;fontSize=12;" vertex="1" parent="lr9Rlgrrn2KDnclNqlx_-1">
          <mxGeometry x="426" y="120" width="110" height="20" as="geometry" />
        </mxCell>
        <mxCell id="lr9Rlgrrn2KDnclNqlx_-13" value="" style="edgeStyle=entityRelationEdgeStyle;startArrow=none;endArrow=none;segment=10;curved=1;rounded=0;align=center;fontStyle=0;fontSize=12;" edge="1" target="lr9Rlgrrn2KDnclNqlx_-14" source="lr9Rlgrrn2KDnclNqlx_-8" parent="lr9Rlgrrn2KDnclNqlx_-1">
          <mxGeometry relative="1" as="geometry">
            <mxPoint x="360" y="400" as="sourcePoint" />
          </mxGeometry>
        </mxCell>
        <mxCell id="lr9Rlgrrn2KDnclNqlx_-21" value="" style="edgeStyle=entityRelationEdgeStyle;startArrow=none;endArrow=none;segment=10;curved=1;rounded=0;align=center;fontStyle=0;fontSize=12;" edge="1" target="lr9Rlgrrn2KDnclNqlx_-22" source="lr9Rlgrrn2KDnclNqlx_-8" parent="lr9Rlgrrn2KDnclNqlx_-1">
          <mxGeometry relative="1" as="geometry">
            <mxPoint x="550" y="250" as="sourcePoint" />
          </mxGeometry>
        </mxCell>
        <mxCell id="lr9Rlgrrn2KDnclNqlx_-22" value="Weaving(织入)" style="whiteSpace=wrap;html=1;shape=partialRectangle;top=0;left=0;bottom=1;right=0;points=[[0,1],[1,1]];fillColor=none;align=center;verticalAlign=bottom;routingCenterY=0.5;snapToPoint=1;autosize=1;treeFolding=1;treeMoving=1;newEdgeStyle={&quot;edgeStyle&quot;:&quot;entityRelationEdgeStyle&quot;,&quot;startArrow&quot;:&quot;none&quot;,&quot;endArrow&quot;:&quot;none&quot;,&quot;segment&quot;:10,&quot;curved&quot;:1};fontStyle=0;fontSize=12;" vertex="1" parent="lr9Rlgrrn2KDnclNqlx_-1">
          <mxGeometry x="436" y="240" width="110" height="20" as="geometry" />
        </mxCell>
        <mxCell id="lr9Rlgrrn2KDnclNqlx_-25" value="" style="edgeStyle=entityRelationEdgeStyle;startArrow=none;endArrow=none;segment=10;curved=1;rounded=0;align=center;fontStyle=0;fontSize=12;" edge="1" target="lr9Rlgrrn2KDnclNqlx_-26" source="lr9Rlgrrn2KDnclNqlx_-12" parent="lr9Rlgrrn2KDnclNqlx_-1">
          <mxGeometry relative="1" as="geometry">
            <mxPoint x="726" y="276" as="sourcePoint" />
          </mxGeometry>
        </mxCell>
        <mxCell id="lr9Rlgrrn2KDnclNqlx_-26" value="声明切面，类似于类定义，每个切面可以包含多个切点和通知" style="whiteSpace=wrap;html=1;shape=partialRectangle;top=0;left=0;bottom=1;right=0;points=[[0,1],[1,1]];fillColor=none;align=center;verticalAlign=bottom;routingCenterY=0.5;snapToPoint=1;autosize=1;treeFolding=1;treeMoving=1;newEdgeStyle={&quot;edgeStyle&quot;:&quot;entityRelationEdgeStyle&quot;,&quot;startArrow&quot;:&quot;none&quot;,&quot;endArrow&quot;:&quot;none&quot;,&quot;segment&quot;:10,&quot;curved&quot;:1};fontStyle=0;fontSize=12;" vertex="1" parent="lr9Rlgrrn2KDnclNqlx_-1">
          <mxGeometry x="563" y="86" width="360" height="20" as="geometry" />
        </mxCell>
        <mxCell id="lr9Rlgrrn2KDnclNqlx_-39" value="" style="edgeStyle=entityRelationEdgeStyle;startArrow=none;endArrow=none;segment=10;curved=1;rounded=0;align=center;fontStyle=0;fontSize=12;" edge="1" target="lr9Rlgrrn2KDnclNqlx_-40" source="lr9Rlgrrn2KDnclNqlx_-14" parent="lr9Rlgrrn2KDnclNqlx_-1">
          <mxGeometry relative="1" as="geometry">
            <mxPoint x="676" y="266" as="sourcePoint" />
          </mxGeometry>
        </mxCell>
        <mxCell id="lr9Rlgrrn2KDnclNqlx_-40" value="用来筛选我们要在哪些地方增加逻辑" style="whiteSpace=wrap;html=1;shape=partialRectangle;top=0;left=0;bottom=1;right=0;points=[[0,1],[1,1]];fillColor=none;align=center;verticalAlign=bottom;routingCenterY=0.5;snapToPoint=1;autosize=1;treeFolding=1;treeMoving=1;newEdgeStyle={&quot;edgeStyle&quot;:&quot;entityRelationEdgeStyle&quot;,&quot;startArrow&quot;:&quot;none&quot;,&quot;endArrow&quot;:&quot;none&quot;,&quot;segment&quot;:10,&quot;curved&quot;:1};fontStyle=0;fontSize=12;" vertex="1" parent="lr9Rlgrrn2KDnclNqlx_-1">
          <mxGeometry x="635" y="120" width="220" height="20" as="geometry" />
        </mxCell>
        <mxCell id="lr9Rlgrrn2KDnclNqlx_-41" value="" style="edgeStyle=entityRelationEdgeStyle;startArrow=none;endArrow=none;segment=10;curved=1;rounded=0;align=center;fontStyle=0;fontSize=12;" edge="1" target="lr9Rlgrrn2KDnclNqlx_-42" source="lr9Rlgrrn2KDnclNqlx_-16" parent="lr9Rlgrrn2KDnclNqlx_-1">
          <mxGeometry relative="1" as="geometry">
            <mxPoint x="716" y="266" as="sourcePoint" />
          </mxGeometry>
        </mxCell>
        <mxCell id="lr9Rlgrrn2KDnclNqlx_-42" value="通过切点筛选出来要增加逻辑的地方" style="whiteSpace=wrap;html=1;shape=partialRectangle;top=0;left=0;bottom=1;right=0;points=[[0,1],[1,1]];fillColor=none;align=center;verticalAlign=bottom;routingCenterY=0.5;snapToPoint=1;autosize=1;treeFolding=1;treeMoving=1;newEdgeStyle={&quot;edgeStyle&quot;:&quot;entityRelationEdgeStyle&quot;,&quot;startArrow&quot;:&quot;none&quot;,&quot;endArrow&quot;:&quot;none&quot;,&quot;segment&quot;:10,&quot;curved&quot;:1};fontStyle=0;fontSize=12;" vertex="1" parent="lr9Rlgrrn2KDnclNqlx_-1">
          <mxGeometry x="626" y="146" width="220" height="20" as="geometry" />
        </mxCell>
        <mxCell id="lr9Rlgrrn2KDnclNqlx_-43" value="" style="edgeStyle=entityRelationEdgeStyle;startArrow=none;endArrow=none;segment=10;curved=1;rounded=0;align=center;fontStyle=0;fontSize=12;" edge="1" target="lr9Rlgrrn2KDnclNqlx_-44" source="lr9Rlgrrn2KDnclNqlx_-18" parent="lr9Rlgrrn2KDnclNqlx_-1">
          <mxGeometry relative="1" as="geometry">
            <mxPoint x="716" y="266" as="sourcePoint" />
          </mxGeometry>
        </mxCell>
        <mxCell id="lr9Rlgrrn2KDnclNqlx_-44" value="我们对筛选出来的连接点肯定要进行额外操作，这些额外操作就是advice" style="whiteSpace=wrap;html=1;shape=partialRectangle;top=0;left=0;bottom=1;right=0;points=[[0,1],[1,1]];fillColor=none;align=center;verticalAlign=bottom;routingCenterY=0.5;snapToPoint=1;autosize=1;treeFolding=1;treeMoving=1;newEdgeStyle={&quot;edgeStyle&quot;:&quot;entityRelationEdgeStyle&quot;,&quot;startArrow&quot;:&quot;none&quot;,&quot;endArrow&quot;:&quot;none&quot;,&quot;segment&quot;:10,&quot;curved&quot;:1};fontStyle=0;fontSize=12;" vertex="1" parent="lr9Rlgrrn2KDnclNqlx_-1">
          <mxGeometry x="548" y="176" width="420" height="20" as="geometry" />
        </mxCell>
        <mxCell id="lr9Rlgrrn2KDnclNqlx_-45" value="" style="edgeStyle=entityRelationEdgeStyle;startArrow=none;endArrow=none;segment=10;curved=1;rounded=0;align=center;fontStyle=0;fontSize=12;" edge="1" target="lr9Rlgrrn2KDnclNqlx_-46" source="lr9Rlgrrn2KDnclNqlx_-20" parent="lr9Rlgrrn2KDnclNqlx_-1">
          <mxGeometry relative="1" as="geometry">
            <mxPoint x="716" y="266" as="sourcePoint" />
          </mxGeometry>
        </mxCell>
        <mxCell id="lr9Rlgrrn2KDnclNqlx_-46" value="被织入Advice的对象" style="whiteSpace=wrap;html=1;shape=partialRectangle;top=0;left=0;bottom=1;right=0;points=[[0,1],[1,1]];fillColor=none;align=center;verticalAlign=bottom;routingCenterY=0.5;snapToPoint=1;autosize=1;treeFolding=1;treeMoving=1;newEdgeStyle={&quot;edgeStyle&quot;:&quot;entityRelationEdgeStyle&quot;,&quot;startArrow&quot;:&quot;none&quot;,&quot;endArrow&quot;:&quot;none&quot;,&quot;segment&quot;:10,&quot;curved&quot;:1};fontStyle=0;fontSize=12;" vertex="1" parent="lr9Rlgrrn2KDnclNqlx_-1">
          <mxGeometry x="641" y="210" width="140" height="20" as="geometry" />
        </mxCell>
        <mxCell id="lr9Rlgrrn2KDnclNqlx_-47" value="" style="edgeStyle=entityRelationEdgeStyle;startArrow=none;endArrow=none;segment=10;curved=1;rounded=0;align=center;fontStyle=0;fontSize=12;" edge="1" target="lr9Rlgrrn2KDnclNqlx_-48" source="lr9Rlgrrn2KDnclNqlx_-22" parent="lr9Rlgrrn2KDnclNqlx_-1">
          <mxGeometry relative="1" as="geometry">
            <mxPoint x="716" y="106" as="sourcePoint" />
          </mxGeometry>
        </mxCell>
        <mxCell id="lr9Rlgrrn2KDnclNqlx_-48" value="将通知织入到通过切点筛选出来的连接点上" style="whiteSpace=wrap;html=1;shape=partialRectangle;top=0;left=0;bottom=1;right=0;points=[[0,1],[1,1]];fillColor=none;align=center;verticalAlign=bottom;routingCenterY=0.5;snapToPoint=1;autosize=1;treeFolding=1;treeMoving=1;newEdgeStyle={&quot;edgeStyle&quot;:&quot;entityRelationEdgeStyle&quot;,&quot;startArrow&quot;:&quot;none&quot;,&quot;endArrow&quot;:&quot;none&quot;,&quot;segment&quot;:10,&quot;curved&quot;:1};fontStyle=0;fontSize=12;" vertex="1" parent="lr9Rlgrrn2KDnclNqlx_-1">
          <mxGeometry x="613" y="240" width="260" height="20" as="geometry" />
        </mxCell>
      </root>
    </mxGraphModel>
  </diagram>
</mxfile>
